<svg width="128" height="128" viewBox="0 0 128 128" fill="none" xmlns="http://www.w3.org/2000/svg">
  <rect width="128" height="128" rx="30" fill="#F8F9FA"/>
  <rect x="24" y="16" width="56" height="10" rx="5" fill="#4285F4"/>
  <rect x="98" y="34" width="10" height="52" rx="5" fill="#EA4335"/>
  <rect x="48" y="102" width="56" height="10" rx="5" fill="#FBBC05"/>
  <rect x="20" y="48" width="10" height="42" rx="5" fill="#34A853"/>
  <rect x="30" y="24" width="68" height="82" rx="14" fill="white" stroke="#E2E5EA" stroke-width="3"/>
  <path d="M78 24H84C91.732 24 98 30.268 98 38V44L78 24Z" fill="#E8EAED"/>
  <circle cx="82" cy="84" r="10" fill="#4285F4"/>
  <path d="M82 78L83.91 82.09L88 84L83.91 85.91L82 90L80.09 85.91L76 84L80.09 82.09L82 78Z" fill="white"/>
</svg>
