<svg width="512" height="512" viewBox="0 0 512 512" fill="none" xmlns="http://www.w3.org/2000/svg">
  <rect width="512" height="512" rx="120" fill="#F8F9FA"/>
  <rect x="92" y="64" width="228" height="36" rx="18" fill="#4285F4"/>
  <rect x="392" y="132" width="36" height="208" rx="18" fill="#EA4335"/>
  <rect x="192" y="412" width="228" height="36" rx="18" fill="#FBBC05"/>
  <rect x="84" y="192" width="36" height="180" rx="18" fill="#34A853"/>
  <rect x="118" y="92" width="276" height="332" rx="56" fill="white" stroke="#E2E5EA" stroke-width="10"/>
  <path d="M310 92H338C369.48 92 395 117.52 395 149V178L310 92Z" fill="#E8EAED"/>
  <rect x="158" y="172" width="158" height="20" rx="10" fill="#4285F4"/>
  <rect x="158" y="214" width="198" height="16" rx="8" fill="#EA4335"/>
  <rect x="158" y="248" width="170" height="16" rx="8" fill="#FBBC05"/>
  <rect x="158" y="282" width="144" height="16" rx="8" fill="#34A853"/>
  <circle cx="328" cy="316" r="34" fill="#4285F4"/>
  <path d="M328 297L333.572 311.428H349L336.714 320.286L342.286 334.714L328 325.857L313.714 334.714L319.286 320.286L307 311.428H322.428L328 297Z" fill="white"/>
</svg>
