<svg width="1200" height="630" viewBox="0 0 1200 630" fill="none" xmlns="http://www.w3.org/2000/svg">
  <rect width="1200" height="630" rx="36" fill="#F2EEEB"/>
  <rect x="32" y="32" width="1136" height="566" rx="32" fill="url(#bg)"/>
  <circle cx="1060" cy="118" r="84" fill="#F2EEEB" fill-opacity="0.1"/>
  <circle cx="980" cy="532" r="118" fill="#F2EEEB" fill-opacity="0.08"/>
  <circle cx="192" cy="500" r="132" fill="#BF8B5E" fill-opacity="0.1"/>
  <g transform="translate(110 112)">
    <rect width="208" height="208" rx="52" fill="#F2EEEB" fill-opacity="0.96"/>
    <rect x="34" y="42" width="114" height="18" rx="9" fill="#D98673"/>
    <rect x="34" y="78" width="148" height="12" rx="6" fill="#BF8B5E"/>
    <rect x="34" y="104" width="126" height="12" rx="6" fill="#733B2F"/>
    <rect x="34" y="130" width="98" height="12" rx="6" fill="#594246" fill-opacity="0.72"/>
    <circle cx="174" cy="150" r="30" fill="#733B2F"/>
    <path d="M174 128L179 142H194L182 150L187 164L174 156L161 164L166 150L154 142H169L174 128Z" fill="#F2EEEB"/>
  </g>
  <text x="380" y="236" fill="#F2EEEB" font-family="'Segoe UI', Arial, sans-serif" font-size="68" font-weight="700">
    Repository Polish Skill
  </text>
  <text x="380" y="308" fill="#F2EEEB" fill-opacity="0.9" font-family="'Segoe UI', Arial, sans-serif" font-size="30" font-weight="500">
    README upgrades, bilingual docs, GitHub Pages, and release-ready repo polish
  </text>
  <text x="380" y="398" fill="#F2EEEB" fill-opacity="0.78" font-family="'Segoe UI', Arial, sans-serif" font-size="26">
    Codex skill for turning useful repos into polished public projects
  </text>
  <rect x="380" y="438" width="284" height="52" rx="26" fill="#F2EEEB" fill-opacity="0.12"/>
  <text x="412" y="472" fill="#F2EEEB" font-family="'Segoe UI', Arial, sans-serif" font-size="24" font-weight="600">
    Warm, editorial repo polish
  </text>
  <defs>
    <linearGradient id="bg" x1="58" y1="44" x2="1116" y2="600" gradientUnits="userSpaceOnUse">
      <stop stop-color="#594246"/>
      <stop offset="0.52" stop-color="#733B2F"/>
      <stop offset="1" stop-color="#D98673"/>
    </linearGradient>
  </defs>
</svg>
