<svg width="1200" height="630" viewBox="0 0 1200 630" fill="none" xmlns="http://www.w3.org/2000/svg">
  <rect width="1200" height="630" rx="32" fill="#F8F9FA"/>
  <circle cx="1030" cy="104" r="76" fill="#4285F4" fill-opacity="0.08"/>
  <circle cx="1108" cy="232" r="54" fill="#EA4335" fill-opacity="0.08"/>
  <circle cx="1028" cy="520" r="98" fill="#FBBC05" fill-opacity="0.12"/>
  <circle cx="164" cy="514" r="110" fill="#34A853" fill-opacity="0.08"/>
  <g transform="translate(90 84)">
    <rect width="276" height="276" rx="64" fill="white" stroke="#E2E5EA" stroke-width="10"/>
    <rect x="-10" y="12" width="156" height="26" rx="13" fill="#4285F4"/>
    <rect x="240" y="64" width="26" height="134" rx="13" fill="#EA4335"/>
    <rect x="92" y="248" width="156" height="26" rx="13" fill="#FBBC05"/>
    <rect x="-18" y="116" width="26" height="112" rx="13" fill="#34A853"/>
    <path d="M194 0H220C250.928 0 276 25.0721 276 56V82L194 0Z" fill="#E8EAED"/>
    <rect x="54" y="92" width="110" height="14" rx="7" fill="#4285F4"/>
    <rect x="54" y="124" width="144" height="12" rx="6" fill="#EA4335"/>
    <rect x="54" y="150" width="126" height="12" rx="6" fill="#FBBC05"/>
    <rect x="54" y="176" width="96" height="12" rx="6" fill="#34A853"/>
    <circle cx="194" cy="198" r="28" fill="#4285F4"/>
    <path d="M194 181L198.49 192.51L210 197L198.49 201.49L194 213L189.51 201.49L178 197L189.51 192.51L194 181Z" fill="white"/>
  </g>
  <text x="430" y="220" fill="#202124" font-family="'Segoe UI', Arial, sans-serif" font-size="66" font-weight="700">
    Repository Polish Skill
  </text>
  <text x="430" y="292" fill="#5F6368" font-family="'Segoe UI', Arial, sans-serif" font-size="31" font-weight="500">
    README upgrades, bilingual docs, GitHub Pages, and end-to-end polish
  </text>
  <rect x="430" y="356" width="208" height="18" rx="9" fill="#4285F4"/>
  <rect x="430" y="392" width="238" height="16" rx="8" fill="#EA4335"/>
  <rect x="430" y="424" width="196" height="16" rx="8" fill="#FBBC05"/>
  <rect x="430" y="456" width="168" height="16" rx="8" fill="#34A853"/>
  <rect x="430" y="516" width="290" height="56" rx="28" fill="#202124"/>
  <text x="463" y="552" fill="white" font-family="'Segoe UI', Arial, sans-serif" font-size="26" font-weight="600">
    Finish the last mile cleanly
  </text>
</svg>
